<svg width="319" height="35" viewBox="0 0 319 35" fill="none" xmlns="http://www.w3.org/2000/svg">
<g opacity="0.5">
<path d="M34 1H2V26.6979H12.2774V33H18.7397V26.6979H25.1241V21.0076H18.7397V14.8891H22.944L27.4599 9.07648H12.2774V21.0076H8.22871V6.69025H29.4842L34 1Z" stroke="white" stroke-width="0.1"/>
</g>
<g opacity="0.5">
<path d="M197 33V1H171.302V11.2774H165V17.7397H171.302V24.1241H176.992V17.7397H183.111V21.944L188.924 26.4599V11.2774H176.992V7.22871H191.31V28.4842L197 33Z" stroke="white" stroke-width="0.1"/>
</g>
<g opacity="0.5">
<mask id="path-3-outside-1_785_1279" maskUnits="userSpaceOnUse" x="28" y="7" width="286" height="27" fill="black">
<rect fill="white" x="28" y="7" width="286" height="27"/>
<path d="M33.624 25.976C33.7413 26.904 33.9813 27.656 34.344 28.232C34.7173 28.7973 35.192 29.2133 35.768 29.48C36.344 29.736 36.9893 29.864 37.704 29.864C38.4827 29.864 39.2347 29.736 39.96 29.48C40.6853 29.224 41.384 28.8827 42.056 28.456L44.088 31.208C43.288 31.8907 42.3173 32.4507 41.176 32.888C40.0453 33.3253 38.7547 33.544 37.304 33.544C35.3627 33.544 33.736 33.16 32.424 32.392C31.112 31.6133 30.1253 30.5467 29.464 29.192C28.8027 27.8373 28.472 26.28 28.472 24.52C28.472 22.8453 28.792 21.3253 29.432 19.96C30.072 18.584 31.0053 17.4907 32.232 16.68C33.4693 15.8587 34.9787 15.448 36.76 15.448C38.3813 15.448 39.784 15.7947 40.968 16.488C42.1627 17.1813 43.0853 18.1787 43.736 19.48C44.3973 20.7813 44.728 22.344 44.728 24.168C44.728 24.456 44.7173 24.7653 44.696 25.096C44.6853 25.4267 44.664 25.72 44.632 25.976H33.624ZM36.76 18.84C35.8533 18.84 35.1227 19.1653 34.568 19.816C34.0133 20.4667 33.6773 21.5067 33.56 22.936H39.8C39.7893 21.6987 39.5493 20.7067 39.08 19.96C38.6107 19.2133 37.8373 18.84 36.76 18.84ZM48.5875 33V29.608H50.8275V19.368H48.5875V16.008H54.6835L55.6115 19.832C56.2195 18.3707 56.9928 17.2827 57.9315 16.568C58.8808 15.8533 60.0382 15.496 61.4035 15.496C61.9795 15.496 62.4915 15.544 62.9395 15.64C63.3875 15.7253 63.8088 15.848 64.2035 16.008L62.6675 20.184C62.3582 20.0987 62.0488 20.0347 61.7395 19.992C61.4302 19.9493 61.0888 19.928 60.7155 19.928C59.6062 19.928 58.6302 20.3813 57.7875 21.288C56.9555 22.1947 56.3208 23.3467 55.8835 24.744V29.608H59.2435V33H48.5875ZM60.0915 23.112V18.152L60.8435 16.008H64.2035L63.2595 23.112H60.0915ZM67.615 33V16.008H72.031L72.383 17.976C73.1403 17.1227 73.9403 16.488 74.783 16.072C75.6257 15.656 76.5857 15.448 77.663 15.448C79.1137 15.448 80.255 15.8907 81.087 16.776C81.919 17.6613 82.335 18.9093 82.335 20.52V33H77.279V21.976C77.279 21.2827 77.231 20.7333 77.135 20.328C77.039 19.912 76.8683 19.6187 76.623 19.448C76.3883 19.2667 76.063 19.176 75.647 19.176C75.295 19.176 74.9483 19.256 74.607 19.416C74.2763 19.5653 73.951 19.784 73.631 20.072C73.311 20.36 72.991 20.7067 72.671 21.112V33H67.615ZM101.107 28.104C101.107 28.744 101.192 29.208 101.363 29.496C101.544 29.784 101.832 30.0027 102.227 30.152L101.187 33.48C100.184 33.384 99.3358 33.1653 98.6425 32.824C97.9598 32.472 97.4212 31.944 97.0265 31.24C96.3758 32.0187 95.5438 32.6 94.5305 32.984C93.5172 33.3573 92.4825 33.544 91.4265 33.544C89.6772 33.544 88.2798 33.048 87.2345 32.056C86.1998 31.0533 85.6825 29.768 85.6825 28.2C85.6825 26.3547 86.4025 24.9307 87.8425 23.928C89.2932 22.9253 91.3305 22.424 93.9545 22.424H96.2425V21.784C96.2425 20.8987 95.9545 20.2427 95.3785 19.816C94.8132 19.3893 93.9812 19.176 92.8825 19.176C92.3385 19.176 91.6398 19.256 90.7865 19.416C89.9332 19.5653 89.0798 19.784 88.2265 20.072L87.0585 16.712C88.1572 16.296 89.2985 15.9813 90.4825 15.768C91.6772 15.5547 92.7438 15.448 93.6825 15.448C96.2105 15.448 98.0772 15.9653 99.2825 17C100.499 18.024 101.107 19.5067 101.107 21.448V28.104ZM93.1705 29.928C93.7145 29.928 94.2852 29.768 94.8825 29.448C95.4798 29.1173 95.9332 28.6533 96.2425 28.056V25.304H94.9945C93.5865 25.304 92.5518 25.5227 91.8905 25.96C91.2292 26.3867 90.8985 27.016 90.8985 27.848C90.8985 28.4987 91.0958 29.0107 91.4905 29.384C91.8958 29.7467 92.4558 29.928 93.1705 29.928ZM105.99 33V16.008H110.406L110.758 17.976C111.515 17.1227 112.315 16.488 113.158 16.072C114.001 15.656 114.961 15.448 116.038 15.448C117.489 15.448 118.63 15.8907 119.462 16.776C120.294 17.6613 120.71 18.9093 120.71 20.52V33H115.654V21.976C115.654 21.2827 115.606 20.7333 115.51 20.328C115.414 19.912 115.243 19.6187 114.998 19.448C114.763 19.2667 114.438 19.176 114.022 19.176C113.67 19.176 113.323 19.256 112.982 19.416C112.651 19.5653 112.326 19.784 112.006 20.072C111.686 20.36 111.366 20.7067 111.046 21.112V33H105.99ZM134.842 8.728L139.898 9.256V33H135.418L135.162 31.128C134.692 31.7893 134.068 32.36 133.29 32.84C132.511 33.3093 131.567 33.544 130.458 33.544C129.05 33.544 127.882 33.1653 126.954 32.408C126.036 31.6507 125.348 30.5947 124.89 29.24C124.442 27.8747 124.218 26.28 124.218 24.456C124.218 22.7067 124.49 21.1547 125.034 19.8C125.578 18.4453 126.356 17.384 127.37 16.616C128.383 15.8373 129.588 15.448 130.986 15.448C131.743 15.448 132.447 15.5813 133.098 15.848C133.748 16.1147 134.33 16.504 134.842 17.016V8.728ZM132.345 19.144C131.471 19.144 130.767 19.56 130.234 20.392C129.7 21.2133 129.434 22.5787 129.434 24.488C129.434 25.8853 129.546 26.9733 129.77 27.752C129.994 28.52 130.303 29.0587 130.698 29.368C131.092 29.6773 131.546 29.832 132.058 29.832C132.623 29.832 133.135 29.656 133.594 29.304C134.063 28.952 134.479 28.472 134.842 27.864V20.536C134.49 20.0987 134.116 19.7573 133.722 19.512C133.327 19.2667 132.868 19.144 132.345 19.144ZM151.725 15.448C153.474 15.448 154.962 15.8213 156.189 16.568C157.416 17.3147 158.354 18.3653 159.005 19.72C159.656 21.064 159.981 22.6427 159.981 24.456C159.981 26.344 159.65 27.9707 158.989 29.336C158.338 30.6907 157.4 31.7307 156.173 32.456C154.946 33.1813 153.464 33.544 151.725 33.544C149.997 33.544 148.514 33.1867 147.277 32.472C146.05 31.7573 145.106 30.7227 144.445 29.368C143.794 28.0133 143.469 26.3867 143.469 24.488C143.469 22.6853 143.794 21.1067 144.445 19.752C145.106 18.3973 146.05 17.3413 147.277 16.584C148.514 15.8267 149.997 15.448 151.725 15.448ZM151.725 19.176C150.69 19.176 149.922 19.6027 149.421 20.456C148.93 21.2987 148.685 22.6427 148.685 24.488C148.685 26.3653 148.93 27.7253 149.421 28.568C149.922 29.4107 150.69 29.832 151.725 29.832C152.76 29.832 153.522 29.4107 154.013 28.568C154.514 27.7253 154.765 26.3547 154.765 24.456C154.765 22.6213 154.514 21.2827 154.013 20.44C153.522 19.5973 152.76 19.176 151.725 19.176ZM209.288 15.448C211.037 15.448 212.525 15.8213 213.752 16.568C214.978 17.3147 215.917 18.3653 216.568 19.72C217.218 21.064 217.544 22.6427 217.544 24.456C217.544 26.344 217.213 27.9707 216.552 29.336C215.901 30.6907 214.962 31.7307 213.736 32.456C212.509 33.1813 211.026 33.544 209.288 33.544C207.56 33.544 206.077 33.1867 204.84 32.472C203.613 31.7573 202.669 30.7227 202.008 29.368C201.357 28.0133 201.032 26.3867 201.032 24.488C201.032 22.6853 201.357 21.1067 202.008 19.752C202.669 18.3973 203.613 17.3413 204.84 16.584C206.077 15.8267 207.56 15.448 209.288 15.448ZM209.288 19.176C208.253 19.176 207.485 19.6027 206.984 20.456C206.493 21.2987 206.248 22.6427 206.248 24.488C206.248 26.3653 206.493 27.7253 206.984 28.568C207.485 29.4107 208.253 29.832 209.288 29.832C210.322 29.832 211.085 29.4107 211.576 28.568C212.077 27.7253 212.328 26.3547 212.328 24.456C212.328 22.6213 212.077 21.2827 211.576 20.44C211.085 19.5973 210.322 19.176 209.288 19.176ZM221.275 33V29.608H223.515V19.368H221.275V16.008H227.371L228.299 19.832C228.907 18.3707 229.68 17.2827 230.619 16.568C231.568 15.8533 232.726 15.496 234.091 15.496C234.667 15.496 235.179 15.544 235.627 15.64C236.075 15.7253 236.496 15.848 236.891 16.008L235.355 20.184C235.046 20.0987 234.736 20.0347 234.427 19.992C234.118 19.9493 233.776 19.928 233.403 19.928C232.294 19.928 231.318 20.3813 230.475 21.288C229.643 22.1947 229.008 23.3467 228.571 24.744V29.608H231.931V33H221.275ZM232.779 23.112V18.152L233.531 16.008H236.891L235.947 23.112H232.779ZM244.687 25.976C244.804 26.904 245.044 27.656 245.407 28.232C245.78 28.7973 246.255 29.2133 246.831 29.48C247.407 29.736 248.052 29.864 248.767 29.864C249.545 29.864 250.297 29.736 251.023 29.48C251.748 29.224 252.447 28.8827 253.119 28.456L255.151 31.208C254.351 31.8907 253.38 32.4507 252.239 32.888C251.108 33.3253 249.817 33.544 248.367 33.544C246.425 33.544 244.799 33.16 243.487 32.392C242.175 31.6133 241.188 30.5467 240.527 29.192C239.865 27.8373 239.535 26.28 239.535 24.52C239.535 22.8453 239.855 21.3253 240.495 19.96C241.135 18.584 242.068 17.4907 243.295 16.68C244.532 15.8587 246.041 15.448 247.823 15.448C249.444 15.448 250.847 15.7947 252.031 16.488C253.225 17.1813 254.148 18.1787 254.799 19.48C255.46 20.7813 255.791 22.344 255.791 24.168C255.791 24.456 255.78 24.7653 255.759 25.096C255.748 25.4267 255.727 25.72 255.694 25.976H244.687ZM247.823 18.84C246.916 18.84 246.185 19.1653 245.631 19.816C245.076 20.4667 244.74 21.5067 244.623 22.936H250.863C250.852 21.6987 250.612 20.7067 250.143 19.96C249.673 19.2133 248.9 18.84 247.823 18.84ZM269.874 16.008V29.544H274.194V33H260.002V29.544H264.818V19.464H260.162V16.008H269.874ZM266.818 7.112C267.693 7.112 268.407 7.384 268.962 7.928C269.517 8.472 269.794 9.14933 269.794 9.96C269.794 10.7707 269.517 11.4533 268.962 12.008C268.407 12.552 267.693 12.824 266.818 12.824C265.933 12.824 265.207 12.552 264.642 12.008C264.087 11.4533 263.81 10.7707 263.81 9.96C263.81 9.14933 264.087 8.472 264.642 7.928C265.207 7.384 265.933 7.112 266.818 7.112ZM278.838 33V29.608H281.078V19.368H278.838V16.008H284.934L285.862 19.832C286.47 18.3707 287.243 17.2827 288.182 16.568C289.131 15.8533 290.288 15.496 291.654 15.496C292.23 15.496 292.742 15.544 293.19 15.64C293.638 15.7253 294.059 15.848 294.454 16.008L292.918 20.184C292.608 20.0987 292.299 20.0347 291.99 19.992C291.68 19.9493 291.339 19.928 290.966 19.928C289.856 19.928 288.88 20.3813 288.038 21.288C287.206 22.1947 286.571 23.3467 286.134 24.744V29.608H289.494V33H278.838ZM290.342 23.112V18.152L291.094 16.008H294.454L293.51 23.112H290.342ZM312.169 28.104C312.169 28.744 312.254 29.208 312.425 29.496C312.606 29.784 312.894 30.0027 313.289 30.152L312.249 33.48C311.246 33.384 310.398 33.1653 309.705 32.824C309.022 32.472 308.484 31.944 308.089 31.24C307.438 32.0187 306.606 32.6 305.593 32.984C304.58 33.3573 303.545 33.544 302.489 33.544C300.74 33.544 299.342 33.048 298.297 32.056C297.262 31.0533 296.745 29.768 296.745 28.2C296.745 26.3547 297.465 24.9307 298.905 23.928C300.356 22.9253 302.393 22.424 305.017 22.424H307.305V21.784C307.305 20.8987 307.017 20.2427 306.441 19.816C305.876 19.3893 305.044 19.176 303.945 19.176C303.401 19.176 302.702 19.256 301.849 19.416C300.996 19.5653 300.142 19.784 299.289 20.072L298.121 16.712C299.22 16.296 300.361 15.9813 301.545 15.768C302.74 15.5547 303.806 15.448 304.745 15.448C307.273 15.448 309.14 15.9653 310.345 17C311.561 18.024 312.169 19.5067 312.169 21.448V28.104ZM304.233 29.928C304.777 29.928 305.348 29.768 305.945 29.448C306.542 29.1173 306.996 28.6533 307.305 28.056V25.304H306.057C304.649 25.304 303.614 25.5227 302.953 25.96C302.292 26.3867 301.961 27.016 301.961 27.848C301.961 28.4987 302.158 29.0107 302.553 29.384C302.958 29.7467 303.518 29.928 304.233 29.928Z"/>
</mask>
<path d="M33.624 25.976V25.876H33.5106L33.5248 25.9885L33.624 25.976ZM34.344 28.232L34.2594 28.2853L34.2606 28.2871L34.344 28.232ZM35.768 29.48L35.726 29.5708L35.7274 29.5714L35.768 29.48ZM39.96 29.48L39.9933 29.5743L39.9933 29.5743L39.96 29.48ZM42.056 28.456L42.1364 28.3966L42.0811 28.3216L42.0024 28.3716L42.056 28.456ZM44.088 31.208L44.1529 31.2841L44.2238 31.2236L44.1684 31.1486L44.088 31.208ZM41.176 32.888L41.1402 32.7946L41.1399 32.7947L41.176 32.888ZM32.424 32.392L32.373 32.478L32.3735 32.4783L32.424 32.392ZM29.464 29.192L29.5539 29.1481L29.5539 29.1481L29.464 29.192ZM29.432 19.96L29.5225 20.0024L29.5227 20.0022L29.432 19.96ZM32.232 16.68L32.2871 16.7634L32.2873 16.7633L32.232 16.68ZM40.968 16.488L40.9175 16.5743L40.9178 16.5745L40.968 16.488ZM43.736 19.48L43.6466 19.5247L43.6469 19.5253L43.736 19.48ZM44.696 25.096L44.5962 25.0896L44.5961 25.0928L44.696 25.096ZM44.632 25.976V26.076H44.7203L44.7312 25.9884L44.632 25.976ZM34.568 19.816L34.4919 19.7511L34.4919 19.7511L34.568 19.816ZM33.56 22.936L33.4603 22.9278L33.4515 23.036H33.56V22.936ZM39.8 22.936V23.036H39.9009L39.9 22.9351L39.8 22.936ZM39.08 19.96L39.1647 19.9068L39.1647 19.9068L39.08 19.96ZM33.5248 25.9885C33.6433 26.9259 33.8866 27.6932 34.2594 28.2853L34.4286 28.1787C34.0761 27.6188 33.8394 26.8821 33.7232 25.9635L33.5248 25.9885ZM34.2606 28.2871C34.6434 28.8668 35.132 29.2957 35.726 29.5707L35.81 29.3893C35.252 29.1309 34.7913 28.7278 34.4274 28.1769L34.2606 28.2871ZM35.7274 29.5714C36.3178 29.8338 36.9772 29.964 37.704 29.964V29.764C37.0015 29.764 36.3702 29.6382 35.8086 29.3886L35.7274 29.5714ZM37.704 29.964C38.4939 29.964 39.2571 29.8341 39.9933 29.5743L39.9267 29.3857C39.2122 29.6379 38.4715 29.764 37.704 29.764V29.964ZM39.9933 29.5743C40.726 29.3157 41.4314 28.971 42.1096 28.5404L42.0024 28.3716C41.3366 28.7943 40.6447 29.1323 39.9267 29.3857L39.9933 29.5743ZM41.9756 28.5154L44.0076 31.2674L44.1684 31.1486L42.1364 28.3966L41.9756 28.5154ZM44.0231 31.1319C43.233 31.8061 42.2726 32.3607 41.1402 32.7946L41.2118 32.9814C42.362 32.5406 43.343 31.9752 44.1529 31.2841L44.0231 31.1319ZM41.1399 32.7947C40.0228 33.2268 38.7447 33.444 37.304 33.444V33.644C38.7646 33.644 40.0679 33.4238 41.2121 32.9813L41.1399 32.7947ZM37.304 33.444C35.3756 33.444 33.7675 33.0626 32.4745 32.3057L32.3735 32.4783C33.7045 33.2574 35.3497 33.644 37.304 33.644V33.444ZM32.475 32.306C31.1796 31.5372 30.2065 30.485 29.5539 29.1481L29.3741 29.2359C30.0441 30.6083 31.0444 31.6895 32.373 32.478L32.475 32.306ZM29.5539 29.1481C28.9002 27.8092 28.572 26.2673 28.572 24.52H28.372C28.372 26.2927 28.7051 27.8654 29.3741 29.2359L29.5539 29.1481ZM28.572 24.52C28.572 22.8584 28.8894 21.3531 29.5225 20.0024L29.3415 19.9176C28.6946 21.2976 28.372 22.8323 28.372 24.52H28.572ZM29.5227 20.0022C30.1551 18.6424 31.0764 17.5636 32.2871 16.7634L32.1769 16.5966C30.9343 17.4178 29.9889 18.5256 29.3413 19.9178L29.5227 20.0022ZM32.2873 16.7633C33.5052 15.9549 34.9944 15.548 36.76 15.548V15.348C34.963 15.348 33.4335 15.7625 32.1767 16.5967L32.2873 16.7633ZM36.76 15.548C38.3668 15.548 39.7514 15.8914 40.9175 16.5743L41.0185 16.4017C39.8166 15.6979 38.3958 15.348 36.76 15.348V15.548ZM40.9178 16.5745C42.0947 17.2575 43.0041 18.2399 43.6466 19.5247L43.8254 19.4353C43.1665 18.1175 42.2307 17.1052 41.0182 16.4015L40.9178 16.5745ZM43.6469 19.5253C44.2995 20.8095 44.628 22.3559 44.628 24.168H44.828C44.828 22.3321 44.4952 20.7531 43.8251 19.4347L43.6469 19.5253ZM44.628 24.168C44.628 24.4536 44.6174 24.7607 44.5962 25.0896L44.7958 25.1024C44.8172 24.7699 44.828 24.4584 44.828 24.168H44.628ZM44.5961 25.0928C44.5855 25.4212 44.5643 25.7114 44.5328 25.9636L44.7312 25.9884C44.7637 25.7286 44.7852 25.4322 44.7959 25.0992L44.5961 25.0928ZM44.632 25.876H33.624V26.076H44.632V25.876ZM36.76 18.74C35.8261 18.74 35.0668 19.0767 34.4919 19.7511L34.6441 19.8809C35.1785 19.254 35.8806 18.94 36.76 18.94V18.74ZM34.4919 19.7511C33.9172 20.4253 33.5783 21.4904 33.4603 22.9278L33.6597 22.9442C33.7763 21.523 34.1095 20.508 34.6441 19.8809L34.4919 19.7511ZM33.56 23.036H39.8V22.836H33.56V23.036ZM39.9 22.9351C39.8892 21.6864 39.6471 20.6742 39.1647 19.9068L38.9953 20.0132C39.4516 20.7391 39.6894 21.7109 39.7 22.9369L39.9 22.9351ZM39.1647 19.9068C38.6728 19.1243 37.8629 18.74 36.76 18.74V18.94C37.8117 18.94 38.5485 19.3024 38.9953 20.0132L39.1647 19.9068ZM48.5875 33H48.4875V33.1H48.5875V33ZM48.5875 29.608V29.508H48.4875V29.608H48.5875ZM50.8275 29.608V29.708H50.9275V29.608H50.8275ZM50.8275 19.368H50.9275V19.268H50.8275V19.368ZM48.5875 19.368H48.4875V19.468H48.5875V19.368ZM48.5875 16.008V15.908H48.4875V16.008H48.5875ZM54.6835 16.008L54.7807 15.9844L54.7621 15.908H54.6835V16.008ZM55.6115 19.832L55.5143 19.8556L55.5864 20.1526L55.7038 19.8704L55.6115 19.832ZM57.9315 16.568L57.8714 16.4881L57.8709 16.4884L57.9315 16.568ZM62.9395 15.64L62.9185 15.7378L62.9208 15.7382L62.9395 15.64ZM64.2035 16.008L64.2974 16.0425L64.3308 15.9517L64.2411 15.9153L64.2035 16.008ZM62.6675 20.184L62.6409 20.2804L62.7296 20.3049L62.7614 20.2185L62.6675 20.184ZM61.7395 19.992L61.7532 19.8929L61.7532 19.8929L61.7395 19.992ZM57.7875 21.288L57.7143 21.2199L57.7138 21.2204L57.7875 21.288ZM55.8835 24.744L55.7881 24.7141L55.7835 24.7287V24.744H55.8835ZM55.8835 29.608H55.7835V29.708H55.8835V29.608ZM59.2435 29.608H59.3435V29.508H59.2435V29.608ZM59.2435 33V33.1H59.3435V33H59.2435ZM60.0915 23.112H59.9915V23.212H60.0915V23.112ZM60.0915 18.152L59.9971 18.1189L59.9915 18.135V18.152H60.0915ZM60.8435 16.008V15.908H60.7726L60.7491 15.9749L60.8435 16.008ZM64.2035 16.008L64.3026 16.0212L64.3177 15.908H64.2035V16.008ZM63.2595 23.112V23.212H63.3471L63.3586 23.1252L63.2595 23.112ZM48.6875 33V29.608H48.4875V33H48.6875ZM48.5875 29.708H50.8275V29.508H48.5875V29.708ZM50.9275 29.608V19.368H50.7275V29.608H50.9275ZM50.8275 19.268H48.5875V19.468H50.8275V19.268ZM48.6875 19.368V16.008H48.4875V19.368H48.6875ZM48.5875 16.108H54.6835V15.908H48.5875V16.108ZM54.5863 16.0316L55.5143 19.8556L55.7087 19.8084L54.7807 15.9844L54.5863 16.0316ZM55.7038 19.8704C56.3073 18.42 57.0714 17.3485 57.9921 16.6476L57.8709 16.4884C56.9142 17.2168 56.1317 18.3213 55.5192 19.7936L55.7038 19.8704ZM57.9916 16.6479C58.9211 15.9482 60.0565 15.596 61.4035 15.596V15.396C60.0198 15.396 58.8405 15.7585 57.8714 16.4881L57.9916 16.6479ZM61.4035 15.596C61.9742 15.596 62.4789 15.6436 62.9185 15.7378L62.9605 15.5422C62.5041 15.4444 61.9848 15.396 61.4035 15.396V15.596ZM62.9208 15.7382C63.3628 15.8224 63.7778 15.9433 64.1659 16.1007L64.2411 15.9153C63.8399 15.7527 63.4122 15.6282 62.9582 15.5418L62.9208 15.7382ZM64.1096 15.9735L62.5736 20.1495L62.7614 20.2185L64.2974 16.0425L64.1096 15.9735ZM62.6941 20.0876C62.3806 20.0011 62.067 19.9362 61.7532 19.8929L61.7258 20.0911C62.0307 20.1331 62.3357 20.1962 62.6409 20.2804L62.6941 20.0876ZM61.7532 19.8929C61.4385 19.8495 61.0926 19.828 60.7155 19.828V20.028C61.0851 20.028 61.4218 20.0491 61.7258 20.0911L61.7532 19.8929ZM60.7155 19.828C59.575 19.828 58.5734 20.2955 57.7143 21.2199L57.8607 21.3561C58.6869 20.4672 59.6373 20.028 60.7155 20.028V19.828ZM57.7138 21.2204C56.8702 22.1397 56.229 23.3054 55.7881 24.7141L55.9789 24.7739C56.4127 23.3879 57.0408 22.2496 57.8612 21.3556L57.7138 21.2204ZM55.7835 24.744V29.608H55.9835V24.744H55.7835ZM55.8835 29.708H59.2435V29.508H55.8835V29.708ZM59.1435 29.608V33H59.3435V29.608H59.1435ZM59.2435 32.9H48.5875V33.1H59.2435V32.9ZM60.1915 23.112V18.152H59.9915V23.112H60.1915ZM60.1859 18.1851L60.9379 16.0411L60.7491 15.9749L59.9971 18.1189L60.1859 18.1851ZM60.8435 16.108H64.2035V15.908H60.8435V16.108ZM64.1044 15.9948L63.1604 23.0988L63.3586 23.1252L64.3026 16.0212L64.1044 15.9948ZM63.2595 23.012H60.0915V23.212H63.2595V23.012ZM67.615 33H67.515V33.1H67.615V33ZM67.615 16.008V15.908H67.515V16.008H67.615ZM72.031 16.008L72.1294 15.9904L72.1147 15.908H72.031V16.008ZM72.383 17.976L72.2846 17.9936L72.3209 18.1966L72.4578 18.0424L72.383 17.976ZM74.783 16.072L74.7387 15.9823L74.7387 15.9823L74.783 16.072ZM81.087 16.776L81.1599 16.7075L81.1599 16.7075L81.087 16.776ZM82.335 33V33.1H82.435V33H82.335ZM77.279 33H77.179V33.1H77.279V33ZM77.135 20.328L77.0376 20.3505L77.0377 20.351L77.135 20.328ZM76.623 19.448L76.5618 19.5272L76.5659 19.5301L76.623 19.448ZM74.607 19.416L74.6482 19.5071L74.6494 19.5065L74.607 19.416ZM73.631 20.072L73.6979 20.1463L73.6979 20.1463L73.631 20.072ZM72.671 21.112L72.5925 21.05L72.571 21.0773V21.112H72.671ZM72.671 33V33.1H72.771V33H72.671ZM67.715 33V16.008H67.515V33H67.715ZM67.615 16.108H72.031V15.908H67.615V16.108ZM71.9326 16.0256L72.2846 17.9936L72.4814 17.9584L72.1294 15.9904L71.9326 16.0256ZM72.4578 18.0424C73.2083 17.1967 73.9984 16.5709 74.8273 16.1617L74.7387 15.9823C73.8823 16.4051 73.0723 17.0486 72.3082 17.9096L72.4578 18.0424ZM74.8273 16.1617C75.6543 15.7534 76.5988 15.548 77.663 15.548V15.348C76.5726 15.348 75.5971 15.5586 74.7387 15.9823L74.8273 16.1617ZM77.663 15.548C79.0919 15.548 80.2047 15.9831 81.0141 16.8445L81.1599 16.7075C80.3053 15.7982 79.1355 15.348 77.663 15.348V15.548ZM81.0141 16.8445C81.8236 17.7059 82.235 18.9263 82.235 20.52H82.435C82.435 18.8924 82.0144 17.6168 81.1599 16.7075L81.0141 16.8445ZM82.235 20.52V33H82.435V20.52H82.235ZM82.335 32.9H77.279V33.1H82.335V32.9ZM77.379 33V21.976H77.179V33H77.379ZM77.379 21.976C77.379 21.2793 77.3309 20.7212 77.2323 20.305L77.0377 20.351C77.1311 20.7455 77.179 21.286 77.179 21.976H77.379ZM77.2324 20.3055C77.1332 19.8756 76.9531 19.5558 76.6801 19.3659L76.5659 19.5301C76.7836 19.6815 76.9448 19.9484 77.0376 20.3505L77.2324 20.3055ZM76.6841 19.3689C76.4261 19.1695 76.0764 19.076 75.647 19.076V19.276C76.0496 19.276 76.3505 19.3638 76.5619 19.5271L76.6841 19.3689ZM75.647 19.076C75.2793 19.076 74.9182 19.1597 74.5646 19.3255L74.6494 19.5065C74.9785 19.3523 75.3107 19.276 75.647 19.276V19.076ZM74.5658 19.3249C74.2242 19.4791 73.8904 19.704 73.5641 19.9977L73.6979 20.1463C74.0116 19.864 74.3284 19.6515 74.6482 19.5071L74.5658 19.3249ZM73.5641 19.9977C73.2392 20.2901 72.9154 20.6411 72.5925 21.05L72.7495 21.174C73.0667 20.7722 73.3828 20.4299 73.6979 20.1463L73.5641 19.9977ZM72.571 21.112V33H72.771V21.112H72.571ZM72.671 32.9H67.615V33.1H72.671V32.9ZM101.363 29.496L101.276 29.547L101.278 29.5493L101.363 29.496ZM102.227 30.152L102.322 30.1818L102.35 30.0918L102.262 30.0585L102.227 30.152ZM101.187 33.48L101.177 33.5795L101.258 33.5873L101.282 33.5098L101.187 33.48ZM98.6425 32.824L98.5967 32.9129L98.5983 32.9137L98.6425 32.824ZM97.0265 31.24L97.1137 31.1911L97.0428 31.0646L96.9498 31.1759L97.0265 31.24ZM94.5305 32.984L94.5651 33.0778L94.5659 33.0775L94.5305 32.984ZM87.2345 32.056L87.1649 32.1278L87.1657 32.1285L87.2345 32.056ZM87.8425 23.928L87.7856 23.8457L87.7854 23.8459L87.8425 23.928ZM96.2425 22.424V22.524H96.3425V22.424H96.2425ZM95.3785 19.816L95.3183 19.8958L95.319 19.8964L95.3785 19.816ZM90.7865 19.416L90.8037 19.5145L90.8049 19.5143L90.7865 19.416ZM88.2265 20.072L88.132 20.1048L88.1646 20.1984L88.2585 20.1667L88.2265 20.072ZM87.0585 16.712L87.0231 16.6185L86.9321 16.6529L86.964 16.7448L87.0585 16.712ZM90.4825 15.768L90.4649 15.6696L90.4648 15.6696L90.4825 15.768ZM99.2825 17L99.2174 17.0759L99.2181 17.0765L99.2825 17ZM94.8825 29.448L94.9297 29.5362L94.9309 29.5355L94.8825 29.448ZM96.2425 28.056L96.3313 28.102L96.3425 28.0804V28.056H96.2425ZM96.2425 25.304H96.3425V25.204H96.2425V25.304ZM91.8905 25.96L91.9447 26.044L91.9457 26.0434L91.8905 25.96ZM91.4905 29.384L91.4218 29.4567L91.4238 29.4585L91.4905 29.384ZM101.007 28.104C101.007 28.7483 101.092 29.235 101.276 29.547L101.449 29.445C101.292 29.181 101.207 28.7397 101.207 28.104H101.007ZM101.278 29.5493C101.473 29.8597 101.781 30.0904 102.191 30.2455L102.262 30.0585C101.883 29.915 101.614 29.7083 101.447 29.4427L101.278 29.5493ZM102.131 30.1222L101.091 33.4502L101.282 33.5098L102.322 30.1818L102.131 30.1222ZM101.196 33.3805C100.202 33.2853 99.3664 33.0689 98.6867 32.7343L98.5983 32.9137C99.3053 33.2617 100.166 33.4827 101.177 33.5795L101.196 33.3805ZM98.6883 32.7351C98.024 32.3926 97.4993 31.8789 97.1137 31.1911L96.9393 31.2889C97.343 32.0091 97.8957 32.5514 98.5967 32.9129L98.6883 32.7351ZM96.9498 31.1759C96.3109 31.9405 95.4935 32.5121 94.4951 32.8905L94.5659 33.0775C95.5942 32.6879 96.4408 32.0969 97.1032 31.3041L96.9498 31.1759ZM94.4959 32.8902C93.4934 33.2595 92.4704 33.444 91.4265 33.444V33.644C92.4946 33.644 93.5409 33.4552 94.5651 33.0778L94.4959 32.8902ZM91.4265 33.444C89.697 33.444 88.3263 32.9542 87.3033 31.9835L87.1657 32.1285C88.2334 33.1418 89.6573 33.644 91.4265 33.644V33.444ZM87.3041 31.9842C86.2907 31.0021 85.7825 29.7436 85.7825 28.2H85.5825C85.5825 29.7924 86.109 31.1045 87.1649 32.1278L87.3041 31.9842ZM85.7825 28.2C85.7825 26.3854 86.4881 24.9929 87.8996 24.0101L87.7854 23.8459C86.3169 24.8684 85.5825 26.3239 85.5825 28.2H85.7825ZM87.8994 24.0103C89.327 23.0235 91.3414 22.524 93.9545 22.524V22.324C91.3196 22.324 89.2593 22.8271 87.7856 23.8457L87.8994 24.0103ZM93.9545 22.524H96.2425V22.324H93.9545V22.524ZM96.3425 22.424V21.784H96.1425V22.424H96.3425ZM96.3425 21.784C96.3425 20.8753 96.0455 20.1856 95.438 19.7356L95.319 19.8964C95.8635 20.2997 96.1425 20.922 96.1425 21.784H96.3425ZM95.4387 19.7362C94.8488 19.291 93.9917 19.076 92.8825 19.076V19.276C93.9707 19.276 94.7775 19.4877 95.3183 19.8958L95.4387 19.7362ZM92.8825 19.076C92.3298 19.076 91.6244 19.1572 90.7681 19.3177L90.8049 19.5143C91.6553 19.3548 92.3472 19.276 92.8825 19.276V19.076ZM90.7693 19.3175C89.9107 19.4677 89.0525 19.6877 88.1945 19.9773L88.2585 20.1667C89.1072 19.8803 89.9556 19.6629 90.8037 19.5145L90.7693 19.3175ZM88.321 20.0392L87.153 16.6792L86.964 16.7448L88.132 20.1048L88.321 20.0392ZM87.0939 16.8055C88.1867 16.3917 89.3221 16.0787 90.5002 15.8664L90.4648 15.6696C89.2749 15.884 88.1276 16.2003 87.0231 16.6185L87.0939 16.8055ZM90.5001 15.8664C91.6905 15.6539 92.7511 15.548 93.6825 15.548V15.348C92.7365 15.348 91.6638 15.4555 90.4649 15.6696L90.5001 15.8664ZM93.6825 15.548C96.1999 15.548 98.0382 16.0637 99.2174 17.0759L99.3476 16.9241C98.1161 15.867 96.2211 15.348 93.6825 15.348V15.548ZM99.2181 17.0765C100.407 18.0773 101.007 19.529 101.007 21.448H101.207C101.207 19.4843 100.59 17.9707 99.3469 16.9235L99.2181 17.0765ZM101.007 21.448V28.104H101.207V21.448H101.007ZM93.1705 30.028C93.7345 30.028 94.3214 29.862 94.9297 29.5361L94.8353 29.3599C94.249 29.674 93.6945 29.828 93.1705 29.828V30.028ZM94.9309 29.5355C95.5452 29.1954 96.0128 28.7171 96.3313 28.102L96.1537 28.01C95.8536 28.5896 95.4144 29.0392 94.8341 29.3605L94.9309 29.5355ZM96.3425 28.056V25.304H96.1425V28.056H96.3425ZM96.2425 25.204H94.9945V25.404H96.2425V25.204ZM94.9945 25.204C93.5802 25.204 92.5214 25.4229 91.8353 25.8766L91.9457 26.0434C92.5823 25.6224 93.5928 25.404 94.9945 25.404V25.204ZM91.8363 25.876C91.1445 26.3223 90.7985 26.9844 90.7985 27.848H90.9985C90.9985 27.0476 91.3138 26.4511 91.9447 26.044L91.8363 25.876ZM90.7985 27.848C90.7985 28.5203 91.0032 29.0607 91.4218 29.4566L91.5592 29.3114C91.1884 28.9606 90.9985 28.4771 90.9985 27.848H90.7985ZM91.4238 29.4585C91.8526 29.8422 92.4391 30.028 93.1705 30.028V29.828C92.4725 29.828 91.939 29.6511 91.5572 29.3095L91.4238 29.4585ZM105.99 33H105.89V33.1H105.99V33ZM105.99 16.008V15.908H105.89V16.008H105.99ZM110.406 16.008L110.504 15.9904L110.49 15.908H110.406V16.008ZM110.758 17.976L110.66 17.9936L110.696 18.1966L110.833 18.0424L110.758 17.976ZM113.158 16.072L113.114 15.9823L113.114 15.9823L113.158 16.072ZM119.462 16.776L119.535 16.7075L119.535 16.7075L119.462 16.776ZM120.71 33V33.1H120.81V33H120.71ZM115.654 33H115.554V33.1H115.654V33ZM115.51 20.328L115.413 20.3505L115.413 20.351L115.51 20.328ZM114.998 19.448L114.937 19.5272L114.941 19.5301L114.998 19.448ZM112.982 19.416L113.023 19.5071L113.024 19.5065L112.982 19.416ZM112.006 20.072L112.073 20.1463L112.073 20.1463L112.006 20.072ZM111.046 21.112L110.968 21.05L110.946 21.0773V21.112H111.046ZM111.046 33V33.1H111.146V33H111.046ZM106.09 33V16.008H105.89V33H106.09ZM105.99 16.108H110.406V15.908H105.99V16.108ZM110.308 16.0256L110.66 17.9936L110.856 17.9584L110.504 15.9904L110.308 16.0256ZM110.833 18.0424C111.583 17.1967 112.373 16.5709 113.202 16.1617L113.114 15.9823C112.257 16.4051 111.447 17.0486 110.683 17.9096L110.833 18.0424ZM113.202 16.1617C114.029 15.7534 114.974 15.548 116.038 15.548V15.348C114.948 15.348 113.972 15.5586 113.114 15.9823L113.202 16.1617ZM116.038 15.548C117.467 15.548 118.58 15.9831 119.389 16.8445L119.535 16.7075C118.68 15.7982 117.51 15.348 116.038 15.348V15.548ZM119.389 16.8445C120.199 17.7059 120.61 18.9263 120.61 20.52H120.81C120.81 18.8924 120.389 17.6168 119.535 16.7075L119.389 16.8445ZM120.61 20.52V33H120.81V20.52H120.61ZM120.71 32.9H115.654V33.1H120.71V32.9ZM115.754 33V21.976H115.554V33H115.754ZM115.754 21.976C115.754 21.2793 115.706 20.7212 115.607 20.305L115.413 20.351C115.506 20.7455 115.554 21.286 115.554 21.976H115.754ZM115.607 20.3055C115.508 19.8756 115.328 19.5558 115.055 19.3659L114.941 19.5301C115.159 19.6815 115.32 19.9484 115.413 20.3505L115.607 20.3055ZM115.059 19.3689C114.801 19.1695 114.451 19.076 114.022 19.076V19.276C114.425 19.276 114.726 19.3638 114.937 19.5271L115.059 19.3689ZM114.022 19.076C113.654 19.076 113.293 19.1597 112.94 19.3255L113.024 19.5065C113.353 19.3523 113.686 19.276 114.022 19.276V19.076ZM112.941 19.3249C112.599 19.4791 112.265 19.704 111.939 19.9977L112.073 20.1463C112.387 19.864 112.703 19.6515 113.023 19.5071L112.941 19.3249ZM111.939 19.9977C111.614 20.2901 111.29 20.6411 110.968 21.05L111.124 21.174C111.442 20.7722 111.758 20.4299 112.073 20.1463L111.939 19.9977ZM110.946 21.112V33H111.146V21.112H110.946ZM111.046 32.9H105.99V33.1H111.046V32.9ZM134.842 8.728L134.852 8.62854L134.742 8.61701V8.728H134.842ZM139.898 9.256H139.998V9.1659L139.908 9.15654L139.898 9.256ZM139.898 33V33.1H139.998V33H139.898ZM135.418 33L135.318 33.0135L135.33 33.1H135.418V33ZM135.162 31.128L135.261 31.1145L135.226 30.8639L135.08 31.0701L135.162 31.128ZM133.29 32.84L133.341 32.9256L133.342 32.9251L133.29 32.84ZM126.954 32.408L126.89 32.4851L126.89 32.4855L126.954 32.408ZM124.89 29.24L124.794 29.2712L124.795 29.2721L124.89 29.24ZM125.034 19.8L124.941 19.7627L124.941 19.7627L125.034 19.8ZM127.37 16.616L127.43 16.6957L127.43 16.6953L127.37 16.616ZM133.098 15.848L133.135 15.7555L133.135 15.7555L133.098 15.848ZM134.842 17.016L134.771 17.0867L134.942 17.2574V17.016H134.842ZM130.234 20.392L130.317 20.4465L130.318 20.446L130.234 20.392ZM129.77 27.752L129.673 27.7796L129.674 27.78L129.77 27.752ZM133.594 29.304L133.533 29.224L133.533 29.2247L133.594 29.304ZM134.842 27.864L134.927 27.9152L134.942 27.8916V27.864H134.842ZM134.842 20.536H134.942V20.5008L134.919 20.4733L134.842 20.536ZM134.831 8.82746L139.887 9.35546L139.908 9.15654L134.852 8.62854L134.831 8.82746ZM139.798 9.256V33H139.998V9.256H139.798ZM139.898 32.9H135.418V33.1H139.898V32.9ZM135.517 32.9865L135.261 31.1145L135.062 31.1415L135.318 33.0135L135.517 32.9865ZM135.08 31.0701C134.619 31.7192 134.006 32.281 133.237 32.7549L133.342 32.9251C134.131 32.439 134.765 31.8595 135.243 31.1859L135.08 31.0701ZM133.238 32.7544C132.478 33.2124 131.553 33.444 130.458 33.444V33.644C131.581 33.644 132.544 33.4062 133.341 32.9256L133.238 32.7544ZM130.458 33.444C129.068 33.444 127.924 33.0708 127.017 32.3305L126.89 32.4855C127.839 33.2598 129.031 33.644 130.458 33.644V33.444ZM127.017 32.3309C126.117 31.5876 125.438 30.5486 124.984 29.2079L124.795 29.2721C125.258 30.6408 125.956 31.7137 126.89 32.4851L127.017 32.3309ZM124.985 29.2088C124.541 27.8558 124.318 26.2721 124.318 24.456H124.118C124.118 26.2879 124.342 27.8935 124.794 29.2712L124.985 29.2088ZM124.318 24.456C124.318 22.717 124.588 21.178 125.126 19.8373L124.941 19.7627C124.391 21.1313 124.118 22.6964 124.118 24.456H124.318ZM125.126 19.8373C125.665 18.4969 126.433 17.4512 127.43 16.6957L127.309 16.5363C126.279 17.3168 125.49 18.3938 124.941 19.7627L125.126 19.8373ZM127.43 16.6953C128.425 15.9313 129.608 15.548 130.986 15.548V15.348C129.568 15.348 128.341 15.7433 127.309 16.5367L127.43 16.6953ZM130.986 15.548C131.731 15.548 132.422 15.6792 133.06 15.9405L133.135 15.7555C132.472 15.4835 131.755 15.348 130.986 15.348V15.548ZM133.06 15.9405C133.698 16.202 134.268 16.5838 134.771 17.0867L134.912 16.9453C134.391 16.4242 133.799 16.0273 133.135 15.7555L133.06 15.9405ZM134.942 17.016V8.728H134.742V17.016H134.942ZM132.345 19.044C131.432 19.044 130.698 19.4817 130.149 20.338L130.318 20.446C130.835 19.6383 131.51 19.244 132.345 19.244V19.044ZM130.15 20.3375C129.6 21.1844 129.334 22.5747 129.334 24.488H129.534C129.534 22.5827 129.801 21.2423 130.317 20.4465L130.15 20.3375ZM129.334 24.488C129.334 25.889 129.446 26.9878 129.673 27.7796L129.866 27.7244C129.645 26.9589 129.534 25.8817 129.534 24.488H129.334ZM129.674 27.78C129.9 28.557 130.218 29.1188 130.636 29.4467L130.759 29.2893C130.388 28.9985 130.087 28.483 129.866 27.724L129.674 27.78ZM130.636 29.4467C131.048 29.7701 131.524 29.932 132.058 29.932V29.732C131.567 29.732 131.136 29.5845 130.759 29.2893L130.636 29.4467ZM132.058 29.932C132.645 29.932 133.179 29.7484 133.654 29.3833L133.533 29.2247C133.091 29.5636 132.6 29.732 132.058 29.732V29.932ZM133.654 29.384C134.135 29.0228 134.559 28.5322 134.927 27.9152L134.756 27.8128C134.398 28.4118 133.991 28.8812 133.534 29.224L133.654 29.384ZM134.942 27.864V20.536H134.742V27.864H134.942ZM134.919 20.4733C134.562 20.029 134.18 19.6794 133.774 19.4271L133.669 19.5969C134.052 19.8352 134.417 20.1684 134.764 20.5987L134.919 20.4733ZM133.774 19.4271C133.362 19.1707 132.884 19.044 132.345 19.044V19.244C132.852 19.244 133.292 19.3626 133.669 19.5969L133.774 19.4271ZM156.189 16.568L156.241 16.4826L156.241 16.4826L156.189 16.568ZM159.005 19.72L158.915 19.7633L158.915 19.7636L159.005 19.72ZM158.989 29.336L158.899 29.2924L158.899 29.2927L158.989 29.336ZM147.277 32.472L147.227 32.5584L147.227 32.5586L147.277 32.472ZM144.445 29.368L144.355 29.4113L144.355 29.4119L144.445 29.368ZM144.445 19.752L144.355 19.7081L144.355 19.7087L144.445 19.752ZM147.277 16.584L147.225 16.4987L147.224 16.4989L147.277 16.584ZM149.421 20.456L149.335 20.4053L149.335 20.4057L149.421 20.456ZM149.421 28.568L149.335 28.6183L149.335 28.6191L149.421 28.568ZM154.013 28.568L153.927 28.5169L153.927 28.5177L154.013 28.568ZM154.013 20.44L153.927 20.4903L153.927 20.4911L154.013 20.44ZM151.725 15.548C153.46 15.548 154.929 15.9182 156.137 16.6534L156.241 16.4826C154.996 15.7245 153.489 15.348 151.725 15.348V15.548ZM156.137 16.6534C157.346 17.3895 158.272 18.4252 158.915 19.7633L159.095 19.6767C158.437 18.3055 157.485 17.2398 156.241 16.4826L156.137 16.6534ZM158.915 19.7636C159.558 21.0914 159.881 22.6546 159.881 24.456H160.081C160.081 22.6308 159.754 21.0366 159.095 19.6764L158.915 19.7636ZM159.881 24.456C159.881 26.3325 159.552 27.9436 158.899 29.2924L159.079 29.3796C159.748 27.9978 160.081 26.3555 160.081 24.456H159.881ZM158.899 29.2927C158.256 30.6306 157.331 31.6552 156.122 32.3699L156.224 32.5421C157.469 31.8061 158.42 30.7508 159.079 29.3793L158.899 29.2927ZM156.122 32.3699C154.914 33.0843 153.45 33.444 151.725 33.444V33.644C153.478 33.644 154.979 33.2783 156.224 32.5421L156.122 32.3699ZM151.725 33.444C150.011 33.444 148.546 33.0896 147.327 32.3854L147.227 32.5586C148.482 33.2837 149.983 33.644 151.725 33.644V33.444ZM147.327 32.3856C146.119 31.6815 145.188 30.6622 144.535 29.3241L144.355 29.4119C145.025 30.7832 145.982 31.8332 147.227 32.5584L147.327 32.3856ZM144.535 29.3247C143.892 27.9866 143.569 26.3755 143.569 24.488H143.369C143.369 26.3978 143.696 28.04 144.355 29.4113L144.535 29.3247ZM143.569 24.488C143.569 22.6974 143.892 21.134 144.535 19.7953L144.355 19.7087C143.697 21.0793 143.369 22.6733 143.369 24.488H143.569ZM144.535 19.7959C145.188 18.4574 146.12 17.416 147.33 16.6691L147.224 16.4989C145.981 17.2666 145.024 18.3373 144.355 19.7081L144.535 19.7959ZM147.329 16.6693C148.548 15.9233 150.012 15.548 151.725 15.548V15.348C149.982 15.348 148.481 15.7301 147.225 16.4987L147.329 16.6693ZM151.725 19.076C150.657 19.076 149.855 19.5198 149.335 20.4053L149.507 20.5067C149.99 19.6856 150.724 19.276 151.725 19.276V19.076ZM149.335 20.4057C148.83 21.272 148.585 22.6382 148.585 24.488H148.785C148.785 22.6471 149.031 21.3253 149.507 20.5063L149.335 20.4057ZM148.585 24.488C148.585 26.3694 148.83 27.7518 149.335 28.6183L149.507 28.5177C149.031 27.6988 148.785 26.3613 148.785 24.488H148.585ZM149.335 28.6191C149.856 29.4941 150.657 29.932 151.725 29.932V29.732C150.723 29.732 149.989 29.3272 149.507 28.5169L149.335 28.6191ZM151.725 29.932C152.793 29.932 153.59 29.494 154.099 28.6183L153.927 28.5177C153.455 29.3274 152.727 29.732 151.725 29.732V29.932ZM154.099 28.6191C154.615 27.7523 154.865 26.3587 154.865 24.456H154.665C154.665 26.3507 154.414 27.6984 153.927 28.5169L154.099 28.6191ZM154.865 24.456C154.865 22.6166 154.614 21.2554 154.099 20.3889L153.927 20.4911C154.414 21.3099 154.665 22.6261 154.665 24.456H154.865ZM154.099 20.3897C153.59 19.514 152.793 19.076 151.725 19.076V19.276C152.727 19.276 153.455 19.6806 153.927 20.4903L154.099 20.3897ZM213.752 16.568L213.803 16.4826L213.803 16.4826L213.752 16.568ZM216.568 19.72L216.477 19.7633L216.477 19.7636L216.568 19.72ZM216.552 29.336L216.462 29.2924L216.461 29.2927L216.552 29.336ZM204.84 32.472L204.789 32.5584L204.789 32.5586L204.84 32.472ZM202.008 29.368L201.917 29.4113L201.918 29.4119L202.008 29.368ZM202.008 19.752L201.918 19.7081L201.917 19.7087L202.008 19.752ZM204.84 16.584L204.787 16.4987L204.787 16.4989L204.84 16.584ZM206.984 20.456L206.897 20.4053L206.897 20.4057L206.984 20.456ZM206.984 28.568L206.897 28.6183L206.898 28.6191L206.984 28.568ZM211.576 28.568L211.49 28.5169L211.489 28.5177L211.576 28.568ZM211.576 20.44L211.489 20.4903L211.49 20.4911L211.576 20.44ZM209.288 15.548C211.022 15.548 212.492 15.9182 213.7 16.6534L213.803 16.4826C212.558 15.7245 211.051 15.348 209.288 15.348V15.548ZM213.7 16.6534C214.909 17.3895 215.835 18.4252 216.477 19.7633L216.658 19.6767C215.999 18.3055 215.047 17.2398 213.803 16.4826L213.7 16.6534ZM216.477 19.7636C217.12 21.0914 217.444 22.6546 217.444 24.456H217.644C217.644 22.6308 217.316 21.0366 216.658 19.6764L216.477 19.7636ZM217.444 24.456C217.444 26.3325 217.115 27.9436 216.462 29.2924L216.641 29.3796C217.311 27.9978 217.644 26.3555 217.644 24.456H217.444ZM216.461 29.2927C215.819 30.6306 214.893 31.6552 213.685 32.3699L213.786 32.5421C215.031 31.8061 215.983 30.7508 216.642 29.3793L216.461 29.2927ZM213.685 32.3699C212.476 33.0843 211.012 33.444 209.288 33.444V33.644C211.04 33.644 212.541 33.2783 213.786 32.5421L213.685 32.3699ZM209.288 33.444C207.573 33.444 206.109 33.0896 204.89 32.3854L204.789 32.5586C206.045 33.2837 207.546 33.644 209.288 33.644V33.444ZM204.89 32.3856C203.681 31.6815 202.751 30.6622 202.097 29.3241L201.918 29.4119C202.587 30.7832 203.544 31.8332 204.789 32.5584L204.89 32.3856ZM202.098 29.3247C201.455 27.9866 201.132 26.3755 201.132 24.488H200.932C200.932 26.3978 201.259 28.04 201.917 29.4113L202.098 29.3247ZM201.132 24.488C201.132 22.6974 201.455 21.134 202.098 19.7953L201.917 19.7087C201.259 21.0793 200.932 22.6733 200.932 24.488H201.132ZM202.097 19.7959C202.751 18.4574 203.682 17.416 204.892 16.6691L204.787 16.4989C203.543 17.2666 202.587 18.3373 201.918 19.7081L202.097 19.7959ZM204.892 16.6693C206.111 15.9233 207.574 15.548 209.288 15.548V15.348C207.545 15.348 206.043 15.7301 204.787 16.4987L204.892 16.6693ZM209.288 19.076C208.219 19.076 207.418 19.5198 206.897 20.4053L207.07 20.5067C207.552 19.6856 208.286 19.276 209.288 19.276V19.076ZM206.897 20.4057C206.393 21.272 206.148 22.6382 206.148 24.488H206.348C206.348 22.6471 206.593 21.3253 207.07 20.5063L206.897 20.4057ZM206.148 24.488C206.148 26.3694 206.393 27.7518 206.897 28.6183L207.07 28.5177C206.593 27.6988 206.348 26.3613 206.348 24.488H206.148ZM206.898 28.6191C207.418 29.4941 208.22 29.932 209.288 29.932V29.732C208.286 29.732 207.552 29.3272 207.069 28.5169L206.898 28.6191ZM209.288 29.932C210.355 29.932 211.152 29.494 211.662 28.6183L211.489 28.5177C211.018 29.3274 210.289 29.732 209.288 29.732V29.932ZM211.661 28.6191C212.177 27.7523 212.428 26.3587 212.428 24.456H212.228C212.228 26.3507 211.976 27.6984 211.49 28.5169L211.661 28.6191ZM212.428 24.456C212.428 22.6166 212.177 21.2554 211.661 20.3889L211.49 20.4911C211.977 21.3099 212.228 22.6261 212.228 24.456H212.428ZM211.662 20.3897C211.152 19.514 210.355 19.076 209.288 19.076V19.276C210.289 19.276 211.018 19.6806 211.489 20.4903L211.662 20.3897ZM221.275 33H221.175V33.1H221.275V33ZM221.275 29.608V29.508H221.175V29.608H221.275ZM223.515 29.608V29.708H223.615V29.608H223.515ZM223.515 19.368H223.615V19.268H223.515V19.368ZM221.275 19.368H221.175V19.468H221.275V19.368ZM221.275 16.008V15.908H221.175V16.008H221.275ZM227.371 16.008L227.468 15.9844L227.45 15.908H227.371V16.008ZM228.299 19.832L228.202 19.8556L228.274 20.1526L228.391 19.8704L228.299 19.832ZM230.619 16.568L230.559 16.4881L230.558 16.4884L230.619 16.568ZM235.627 15.64L235.606 15.7378L235.608 15.7382L235.627 15.64ZM236.891 16.008L236.985 16.0425L237.018 15.9517L236.929 15.9153L236.891 16.008ZM235.355 20.184L235.328 20.2804L235.417 20.3049L235.449 20.2185L235.355 20.184ZM234.427 19.992L234.441 19.8929L234.441 19.8929L234.427 19.992ZM230.475 21.288L230.402 21.2199L230.401 21.2204L230.475 21.288ZM228.571 24.744L228.476 24.7141L228.471 24.7287V24.744H228.571ZM228.571 29.608H228.471V29.708H228.571V29.608ZM231.931 29.608H232.031V29.508H231.931V29.608ZM231.931 33V33.1H232.031V33H231.931ZM232.779 23.112H232.679V23.212H232.779V23.112ZM232.779 18.152L232.685 18.1189L232.679 18.135V18.152H232.779ZM233.531 16.008V15.908H233.46L233.437 15.9749L233.531 16.008ZM236.891 16.008L236.99 16.0212L237.005 15.908H236.891V16.008ZM235.947 23.112V23.212H236.035L236.046 23.1252L235.947 23.112ZM221.375 33V29.608H221.175V33H221.375ZM221.275 29.708H223.515V29.508H221.275V29.708ZM223.615 29.608V19.368H223.415V29.608H223.615ZM223.515 19.268H221.275V19.468H223.515V19.268ZM221.375 19.368V16.008H221.175V19.368H221.375ZM221.275 16.108H227.371V15.908H221.275V16.108ZM227.274 16.0316L228.202 19.8556L228.396 19.8084L227.468 15.9844L227.274 16.0316ZM228.391 19.8704C228.995 18.42 229.759 17.3485 230.68 16.6476L230.558 16.4884C229.602 17.2168 228.819 18.3213 228.207 19.7936L228.391 19.8704ZM230.679 16.6479C231.609 15.9482 232.744 15.596 234.091 15.596V15.396C232.707 15.396 231.528 15.7585 230.559 16.4881L230.679 16.6479ZM234.091 15.596C234.662 15.596 235.166 15.6436 235.606 15.7378L235.648 15.5422C235.192 15.4444 234.672 15.396 234.091 15.396V15.596ZM235.608 15.7382C236.05 15.8224 236.465 15.9433 236.853 16.1007L236.929 15.9153C236.527 15.7527 236.1 15.6282 235.646 15.5418L235.608 15.7382ZM236.797 15.9735L235.261 20.1495L235.449 20.2185L236.985 16.0425L236.797 15.9735ZM235.382 20.0876C235.068 20.0011 234.754 19.9362 234.441 19.8929L234.413 20.0911C234.718 20.1331 235.023 20.1962 235.328 20.2804L235.382 20.0876ZM234.441 19.8929C234.126 19.8495 233.78 19.828 233.403 19.828V20.028C233.773 20.028 234.109 20.0491 234.413 20.0911L234.441 19.8929ZM233.403 19.828C232.263 19.828 231.261 20.2955 230.402 21.2199L230.548 21.3561C231.374 20.4672 232.325 20.028 233.403 20.028V19.828ZM230.401 21.2204C229.558 22.1397 228.916 23.3054 228.476 24.7141L228.666 24.7739C229.1 23.3879 229.728 22.2496 230.549 21.3556L230.401 21.2204ZM228.471 24.744V29.608H228.671V24.744H228.471ZM228.571 29.708H231.931V29.508H228.571V29.708ZM231.831 29.608V33H232.031V29.608H231.831ZM231.931 32.9H221.275V33.1H231.931V32.9ZM232.879 23.112V18.152H232.679V23.112H232.879ZM232.873 18.1851L233.625 16.0411L233.437 15.9749L232.685 18.1189L232.873 18.1851ZM233.531 16.108H236.891V15.908H233.531V16.108ZM236.792 15.9948L235.848 23.0988L236.046 23.1252L236.99 16.0212L236.792 15.9948ZM235.947 23.012H232.779V23.212H235.947V23.012ZM244.687 25.976V25.876H244.573L244.587 25.9885L244.687 25.976ZM245.407 28.232L245.322 28.2853L245.323 28.2871L245.407 28.232ZM246.831 29.48L246.788 29.5708L246.79 29.5714L246.831 29.48ZM251.023 29.48L251.056 29.5743L251.056 29.5743L251.023 29.48ZM253.119 28.456L253.199 28.3966L253.144 28.3216L253.065 28.3716L253.119 28.456ZM255.151 31.208L255.215 31.2841L255.286 31.2236L255.231 31.1486L255.151 31.208ZM252.239 32.888L252.203 32.7946L252.202 32.7947L252.239 32.888ZM243.487 32.392L243.435 32.478L243.436 32.4783L243.487 32.392ZM240.527 29.192L240.616 29.1481L240.616 29.1481L240.527 29.192ZM240.495 19.96L240.585 20.0024L240.585 20.0022L240.495 19.96ZM243.295 16.68L243.35 16.7634L243.35 16.7633L243.295 16.68ZM252.031 16.488L251.98 16.5743L251.98 16.5745L252.031 16.488ZM254.799 19.48L254.709 19.5247L254.709 19.5253L254.799 19.48ZM255.759 25.096L255.659 25.0896L255.659 25.0928L255.759 25.096ZM255.694 25.976V26.076H255.783L255.794 25.9884L255.694 25.976ZM245.631 19.816L245.554 19.7511L245.554 19.7511L245.631 19.816ZM244.623 22.936L244.523 22.9278L244.514 23.036H244.623V22.936ZM250.863 22.936V23.036H250.963L250.962 22.9351L250.863 22.936ZM250.143 19.96L250.227 19.9068L250.227 19.9068L250.143 19.96ZM244.587 25.9885C244.706 26.9259 244.949 27.6932 245.322 28.2853L245.491 28.1787C245.139 27.6188 244.902 26.8821 244.786 25.9635L244.587 25.9885ZM245.323 28.2871C245.706 28.8668 246.194 29.2957 246.788 29.5707L246.873 29.3893C246.315 29.1309 245.854 28.7278 245.49 28.1769L245.323 28.2871ZM246.79 29.5714C247.38 29.8338 248.04 29.964 248.767 29.964V29.764C248.064 29.764 247.433 29.6382 246.871 29.3886L246.79 29.5714ZM248.767 29.964C249.556 29.964 250.32 29.8341 251.056 29.5743L250.989 29.3857C250.275 29.6379 249.534 29.764 248.767 29.764V29.964ZM251.056 29.5743C251.788 29.3157 252.494 28.971 253.172 28.5404L253.065 28.3716C252.399 28.7943 251.707 29.1323 250.989 29.3857L251.056 29.5743ZM253.038 28.5154L255.07 31.2674L255.231 31.1486L253.199 28.3966L253.038 28.5154ZM255.086 31.1319C254.296 31.8061 253.335 32.3607 252.203 32.7946L252.274 32.9814C253.425 32.5406 254.405 31.9752 255.215 31.2841L255.086 31.1319ZM252.202 32.7947C251.085 33.2268 249.807 33.444 248.367 33.444V33.644C249.827 33.644 251.13 33.4238 252.275 32.9813L252.202 32.7947ZM248.367 33.444C246.438 33.444 244.83 33.0626 243.537 32.3057L243.436 32.4783C244.767 33.2574 246.412 33.644 248.367 33.644V33.444ZM243.538 32.306C242.242 31.5372 241.269 30.485 240.616 29.1481L240.437 29.2359C241.107 30.6083 242.107 31.6895 243.435 32.478L243.538 32.306ZM240.616 29.1481C239.963 27.8092 239.635 26.2673 239.635 24.52H239.435C239.435 26.2927 239.768 27.8654 240.437 29.2359L240.616 29.1481ZM239.635 24.52C239.635 22.8584 239.952 21.3531 240.585 20.0024L240.404 19.9176C239.757 21.2976 239.435 22.8323 239.435 24.52H239.635ZM240.585 20.0022C241.218 18.6424 242.139 17.5636 243.35 16.7634L243.239 16.5966C241.997 17.4178 241.051 18.5256 240.404 19.9178L240.585 20.0022ZM243.35 16.7633C244.568 15.9549 246.057 15.548 247.823 15.548V15.348C246.025 15.348 244.496 15.7625 243.239 16.5967L243.35 16.7633ZM247.823 15.548C249.429 15.548 250.814 15.8914 251.98 16.5743L252.081 16.4017C250.879 15.6979 249.458 15.348 247.823 15.348V15.548ZM251.98 16.5745C253.157 17.2575 254.067 18.2399 254.709 19.5247L254.888 19.4353C254.229 18.1175 253.293 17.1052 252.081 16.4015L251.98 16.5745ZM254.709 19.5253C255.362 20.8095 255.691 22.3559 255.691 24.168H255.891C255.891 22.3321 255.558 20.7531 254.888 19.4347L254.709 19.5253ZM255.691 24.168C255.691 24.4536 255.68 24.7607 255.659 25.0896L255.858 25.1024C255.88 24.7699 255.891 24.4584 255.891 24.168H255.691ZM255.659 25.0928C255.648 25.4212 255.627 25.7114 255.595 25.9636L255.794 25.9884C255.826 25.7286 255.848 25.4322 255.858 25.0992L255.659 25.0928ZM255.694 25.876H244.687V26.076H255.694V25.876ZM247.823 18.74C246.889 18.74 246.129 19.0767 245.554 19.7511L245.707 19.8809C246.241 19.254 246.943 18.94 247.823 18.94V18.74ZM245.554 19.7511C244.98 20.4253 244.641 21.4904 244.523 22.9278L244.722 22.9442C244.839 21.523 245.172 20.508 245.707 19.8809L245.554 19.7511ZM244.623 23.036H250.863V22.836H244.623V23.036ZM250.962 22.9351C250.952 21.6864 250.71 20.6742 250.227 19.9068L250.058 20.0132C250.514 20.7391 250.752 21.7109 250.763 22.9369L250.962 22.9351ZM250.227 19.9068C249.735 19.1243 248.925 18.74 247.823 18.74V18.94C248.874 18.94 249.611 19.3024 250.058 20.0132L250.227 19.9068ZM269.874 16.008H269.974V15.908H269.874V16.008ZM269.874 29.544H269.774V29.644H269.874V29.544ZM274.194 29.544H274.294V29.444H274.194V29.544ZM274.194 33V33.1H274.294V33H274.194ZM260.002 33H259.902V33.1H260.002V33ZM260.002 29.544V29.444H259.902V29.544H260.002ZM264.818 29.544V29.644H264.918V29.544H264.818ZM264.818 19.464H264.918V19.364H264.818V19.464ZM260.162 19.464H260.062V19.564H260.162V19.464ZM260.162 16.008V15.908H260.062V16.008H260.162ZM268.962 7.928L269.032 7.85661L269.032 7.85661L268.962 7.928ZM268.962 12.008L269.032 12.0794L269.033 12.0787L268.962 12.008ZM264.642 12.008L264.571 12.0787L264.573 12.0801L264.642 12.008ZM264.642 7.928L264.573 7.85594L264.572 7.85661L264.642 7.928ZM269.774 16.008V29.544H269.974V16.008H269.774ZM269.874 29.644H274.194V29.444H269.874V29.644ZM274.094 29.544V33H274.294V29.544H274.094ZM274.194 32.9H260.002V33.1H274.194V32.9ZM260.102 33V29.544H259.902V33H260.102ZM260.002 29.644H264.818V29.444H260.002V29.644ZM264.918 29.544V19.464H264.718V29.544H264.918ZM264.818 19.364H260.162V19.564H264.818V19.364ZM260.262 19.464V16.008H260.062V19.464H260.262ZM260.162 16.108H269.874V15.908H260.162V16.108ZM266.818 7.212C267.67 7.212 268.358 7.47609 268.892 7.99939L269.032 7.85661C268.456 7.2919 267.715 7.012 266.818 7.012V7.212ZM268.892 7.99939C269.427 8.52369 269.694 9.17489 269.694 9.96H269.894C269.894 9.12378 269.607 8.42031 269.032 7.85661L268.892 7.99939ZM269.694 9.96C269.694 10.7451 269.427 11.4021 268.891 11.9373L269.033 12.0787C269.607 11.5046 269.894 10.7962 269.894 9.96H269.694ZM268.892 11.9366C268.358 12.4599 267.67 12.724 266.818 12.724V12.924C267.715 12.924 268.456 12.6441 269.032 12.0794L268.892 11.9366ZM266.818 12.724C265.955 12.724 265.256 12.4597 264.711 11.9359L264.573 12.0801C265.159 12.6443 265.91 12.924 266.818 12.924V12.724ZM264.713 11.9373C264.177 11.4021 263.91 10.7451 263.91 9.96H263.71C263.71 10.7962 263.997 11.5046 264.571 12.0787L264.713 11.9373ZM263.91 9.96C263.91 9.17489 264.177 8.52369 264.712 7.99939L264.572 7.85661C263.997 8.42031 263.71 9.12378 263.71 9.96H263.91ZM264.711 8.00006C265.256 7.47633 265.955 7.212 266.818 7.212V7.012C265.91 7.012 265.159 7.29166 264.573 7.85594L264.711 8.00006ZM278.838 33H278.738V33.1H278.838V33ZM278.838 29.608V29.508H278.738V29.608H278.838ZM281.078 29.608V29.708H281.178V29.608H281.078ZM281.078 19.368H281.178V19.268H281.078V19.368ZM278.838 19.368H278.738V19.468H278.838V19.368ZM278.838 16.008V15.908H278.738V16.008H278.838ZM284.934 16.008L285.031 15.9844L285.012 15.908H284.934V16.008ZM285.862 19.832L285.764 19.8556L285.836 20.1526L285.954 19.8704L285.862 19.832ZM288.182 16.568L288.121 16.4881L288.121 16.4884L288.182 16.568ZM293.19 15.64L293.169 15.7378L293.171 15.7382L293.19 15.64ZM294.454 16.008L294.547 16.0425L294.581 15.9517L294.491 15.9153L294.454 16.008ZM292.918 20.184L292.891 20.2804L292.98 20.3049L293.011 20.2185L292.918 20.184ZM291.99 19.992L292.003 19.8929L292.003 19.8929L291.99 19.992ZM288.038 21.288L287.964 21.2199L287.964 21.2204L288.038 21.288ZM286.134 24.744L286.038 24.7141L286.034 24.7287V24.744H286.134ZM286.134 29.608H286.034V29.708H286.134V29.608ZM289.494 29.608H289.594V29.508H289.494V29.608ZM289.494 33V33.1H289.594V33H289.494ZM290.342 23.112H290.242V23.212H290.342V23.112ZM290.342 18.152L290.247 18.1189L290.242 18.135V18.152H290.342ZM291.094 16.008V15.908H291.023L290.999 15.9749L291.094 16.008ZM294.454 16.008L294.553 16.0212L294.568 15.908H294.454V16.008ZM293.51 23.112V23.212H293.597L293.609 23.1252L293.51 23.112ZM278.938 33V29.608H278.738V33H278.938ZM278.838 29.708H281.078V29.508H278.838V29.708ZM281.178 29.608V19.368H280.978V29.608H281.178ZM281.078 19.268H278.838V19.468H281.078V19.268ZM278.938 19.368V16.008H278.738V19.368H278.938ZM278.838 16.108H284.934V15.908H278.838V16.108ZM284.836 16.0316L285.764 19.8556L285.959 19.8084L285.031 15.9844L284.836 16.0316ZM285.954 19.8704C286.557 18.42 287.321 17.3485 288.242 16.6476L288.121 16.4884C287.164 17.2168 286.382 18.3213 285.769 19.7936L285.954 19.8704ZM288.242 16.6479C289.171 15.9482 290.306 15.596 291.654 15.596V15.396C290.27 15.396 289.091 15.7585 288.121 16.4881L288.242 16.6479ZM291.654 15.596C292.224 15.596 292.729 15.6436 293.169 15.7378L293.21 15.5422C292.754 15.4444 292.235 15.396 291.654 15.396V15.596ZM293.171 15.7382C293.613 15.8224 294.028 15.9433 294.416 16.1007L294.491 15.9153C294.09 15.7527 293.662 15.6282 293.208 15.5418L293.171 15.7382ZM294.36 15.9735L292.824 20.1495L293.011 20.2185L294.547 16.0425L294.36 15.9735ZM292.944 20.0876C292.631 20.0011 292.317 19.9362 292.003 19.8929L291.976 20.0911C292.281 20.1331 292.586 20.1962 292.891 20.2804L292.944 20.0876ZM292.003 19.8929C291.689 19.8495 291.343 19.828 290.966 19.828V20.028C291.335 20.028 291.672 20.0491 291.976 20.0911L292.003 19.8929ZM290.966 19.828C289.825 19.828 288.823 20.2955 287.964 21.2199L288.111 21.3561C288.937 20.4672 289.887 20.028 290.966 20.028V19.828ZM287.964 21.2204C287.12 22.1397 286.479 23.3054 286.038 24.7141L286.229 24.7739C286.663 23.3879 287.291 22.2496 288.111 21.3556L287.964 21.2204ZM286.034 24.744V29.608H286.234V24.744H286.034ZM286.134 29.708H289.494V29.508H286.134V29.708ZM289.394 29.608V33H289.594V29.608H289.394ZM289.494 32.9H278.838V33.1H289.494V32.9ZM290.442 23.112V18.152H290.242V23.112H290.442ZM290.436 18.1851L291.188 16.0411L290.999 15.9749L290.247 18.1189L290.436 18.1851ZM291.094 16.108H294.454V15.908H291.094V16.108ZM294.354 15.9948L293.41 23.0988L293.609 23.1252L294.553 16.0212L294.354 15.9948ZM293.51 23.012H290.342V23.212H293.51V23.012ZM312.425 29.496L312.339 29.547L312.34 29.5493L312.425 29.496ZM313.289 30.152L313.384 30.1818L313.413 30.0918L313.324 30.0585L313.289 30.152ZM312.249 33.48L312.239 33.5795L312.32 33.5873L312.344 33.5098L312.249 33.48ZM309.705 32.824L309.659 32.9129L309.661 32.9137L309.705 32.824ZM308.089 31.24L308.176 31.1911L308.105 31.0646L308.012 31.1759L308.089 31.24ZM305.593 32.984L305.628 33.0778L305.628 33.0775L305.593 32.984ZM298.297 32.056L298.227 32.1278L298.228 32.1285L298.297 32.056ZM298.905 23.928L298.848 23.8457L298.848 23.8459L298.905 23.928ZM307.305 22.424V22.524H307.405V22.424H307.305ZM306.441 19.816L306.381 19.8958L306.381 19.8964L306.441 19.816ZM301.849 19.416L301.866 19.5145L301.867 19.5143L301.849 19.416ZM299.289 20.072L299.195 20.1048L299.227 20.1984L299.321 20.1667L299.289 20.072ZM298.121 16.712L298.086 16.6185L297.995 16.6529L298.027 16.7448L298.121 16.712ZM301.545 15.768L301.527 15.6696L301.527 15.6696L301.545 15.768ZM310.345 17L310.28 17.0759L310.281 17.0765L310.345 17ZM305.945 29.448L305.992 29.5362L305.993 29.5355L305.945 29.448ZM307.305 28.056L307.394 28.102L307.405 28.0804V28.056H307.305ZM307.305 25.304H307.405V25.204H307.305V25.304ZM302.953 25.96L303.007 26.044L303.008 26.0434L302.953 25.96ZM302.553 29.384L302.484 29.4567L302.486 29.4585L302.553 29.384ZM312.069 28.104C312.069 28.7483 312.154 29.235 312.339 29.547L312.511 29.445C312.355 29.181 312.269 28.7397 312.269 28.104H312.069ZM312.34 29.5493C312.536 29.8597 312.844 30.0904 313.254 30.2455L313.324 30.0585C312.945 29.915 312.677 29.7083 312.51 29.4427L312.34 29.5493ZM313.194 30.1222L312.154 33.4502L312.344 33.5098L313.384 30.1818L313.194 30.1222ZM312.259 33.3805C311.264 33.2853 310.429 33.0689 309.749 32.7343L309.661 32.9137C310.368 33.2617 311.228 33.4827 312.239 33.5795L312.259 33.3805ZM309.751 32.7351C309.086 32.3926 308.562 31.8789 308.176 31.1911L308.002 31.2889C308.406 32.0091 308.958 32.5514 309.659 32.9129L309.751 32.7351ZM308.012 31.1759C307.373 31.9405 306.556 32.5121 305.558 32.8905L305.628 33.0775C306.657 32.6879 307.503 32.0969 308.166 31.3041L308.012 31.1759ZM305.558 32.8902C304.556 33.2595 303.533 33.444 302.489 33.444V33.644C303.557 33.644 304.603 33.4552 305.628 33.0778L305.558 32.8902ZM302.489 33.444C300.759 33.444 299.389 32.9542 298.366 31.9835L298.228 32.1285C299.296 33.1418 300.72 33.644 302.489 33.644V33.444ZM298.367 31.9842C297.353 31.0021 296.845 29.7436 296.845 28.2H296.645C296.645 29.7924 297.171 31.1045 298.227 32.1278L298.367 31.9842ZM296.845 28.2C296.845 26.3854 297.551 24.9929 298.962 24.0101L298.848 23.8459C297.379 24.8684 296.645 26.3239 296.645 28.2H296.845ZM298.962 24.0103C300.389 23.0235 302.404 22.524 305.017 22.524V22.324C302.382 22.324 300.322 22.8271 298.848 23.8457L298.962 24.0103ZM305.017 22.524H307.305V22.324H305.017V22.524ZM307.405 22.424V21.784H307.205V22.424H307.405ZM307.405 21.784C307.405 20.8753 307.108 20.1856 306.501 19.7356L306.381 19.8964C306.926 20.2997 307.205 20.922 307.205 21.784H307.405ZM306.501 19.7362C305.911 19.291 305.054 19.076 303.945 19.076V19.276C305.033 19.276 305.84 19.4877 306.381 19.8958L306.501 19.7362ZM303.945 19.076C303.392 19.076 302.687 19.1572 301.831 19.3177L301.867 19.5143C302.718 19.3548 303.41 19.276 303.945 19.276V19.076ZM301.832 19.3175C300.973 19.4677 300.115 19.6877 299.257 19.9773L299.321 20.1667C300.17 19.8803 301.018 19.6629 301.866 19.5145L301.832 19.3175ZM299.383 20.0392L298.215 16.6792L298.027 16.7448L299.195 20.1048L299.383 20.0392ZM298.156 16.8055C299.249 16.3917 300.385 16.0787 301.563 15.8664L301.527 15.6696C300.337 15.884 299.19 16.2003 298.086 16.6185L298.156 16.8055ZM301.563 15.8664C302.753 15.6539 303.814 15.548 304.745 15.548V15.348C303.799 15.348 302.726 15.4555 301.527 15.6696L301.563 15.8664ZM304.745 15.548C307.262 15.548 309.101 16.0637 310.28 17.0759L310.41 16.9241C309.179 15.867 307.284 15.348 304.745 15.348V15.548ZM310.281 17.0765C311.469 18.0773 312.069 19.529 312.069 21.448H312.269C312.269 19.4843 311.653 17.9707 310.409 16.9235L310.281 17.0765ZM312.069 21.448V28.104H312.269V21.448H312.069ZM304.233 30.028C304.797 30.028 305.384 29.862 305.992 29.5361L305.898 29.3599C305.311 29.674 304.757 29.828 304.233 29.828V30.028ZM305.993 29.5355C306.608 29.1954 307.075 28.7171 307.394 28.102L307.216 28.01C306.916 28.5896 306.477 29.0392 305.897 29.3605L305.993 29.5355ZM307.405 28.056V25.304H307.205V28.056H307.405ZM307.305 25.204H306.057V25.404H307.305V25.204ZM306.057 25.204C304.643 25.204 303.584 25.4229 302.898 25.8766L303.008 26.0434C303.645 25.6224 304.655 25.404 306.057 25.404V25.204ZM302.899 25.876C302.207 26.3223 301.861 26.9844 301.861 27.848H302.061C302.061 27.0476 302.376 26.4511 303.007 26.044L302.899 25.876ZM301.861 27.848C301.861 28.5203 302.066 29.0607 302.484 29.4566L302.622 29.3114C302.251 28.9606 302.061 28.4771 302.061 27.848H301.861ZM302.486 29.4585C302.915 29.8422 303.502 30.028 304.233 30.028V29.828C303.535 29.828 303.002 29.6511 302.62 29.3095L302.486 29.4585Z" fill="white" mask="url(#path-3-outside-1_785_1279)"/>
</g>
<path d="M315.493 0V35L158.239 35L-5.34058e-05 35V0L158.239 0L315.493 0Z" fill="url(#paint0_linear_785_1279)" fill-opacity="0.95"/>
<defs>
<linearGradient id="paint0_linear_785_1279" x1="159.225" y1="51.7606" x2="159.225" y2="-12.3239" gradientUnits="userSpaceOnUse">
<stop/>
<stop offset="1" stop-opacity="0"/>
</linearGradient>
</defs>
</svg>
